<?xml version="1.0" encoding="UTF-8" standalone="no"?>
<svg
   xmlns:dc="http://purl.org/dc/elements/1.1/"
   xmlns:cc="http://creativecommons.org/ns#"
   xmlns:rdf="http://www.w3.org/1999/02/22-rdf-syntax-ns#"
   xmlns:svg="http://www.w3.org/2000/svg"
   xmlns="http://www.w3.org/2000/svg"
   id="svg8"
   version="1.1"
   viewBox="0 0 210 83.735417"
   height="316.48032"
   width="793.70081">
  <defs
     id="defs2" />
  <metadata
     id="metadata5">
    <rdf:RDF>
      <cc:Work
         rdf:about="">
        <dc:format>image/svg+xml</dc:format>
        <dc:type
           rdf:resource="http://purl.org/dc/dcmitype/StillImage" />
        <dc:title></dc:title>
      </cc:Work>
    </rdf:RDF>
  </metadata>
  <g
     transform="translate(0,-213.26458)"
     style="display:inline"
     id="layer1">
    <g
       transform="matrix(1.293694,0,0,1.293694,-28.048443,82.153516)"
       style="display:inline;opacity:1"
       id="layer2">
      <g
         id="g59"
         transform="matrix(1.0983111,0,0,1.0983111,-929.56373,-485.4401)">
        <g
           id="g51">
          <path
             id="path49"
             d="m 935.9,538.5 h -10.2 -0.1 -0.3 v 0 h -30.7 v 6.9 h 0.2 v 0.2 H 905 V 556 h 0.2 v 0.2 h 31.7 c 1.5,0 2.7,1.2 2.7,2.7 V 569 c 0,1.5 -1.2,2.7 -2.7,2.7 h -25.2 v 0.2 h -0.2 v 8.4 h -8.2 v -8.4 h -0.2 v -0.2 h -8.5 v 0.2 0 -0.2 h -0.2 v 0.2 h 0.2 v 0 h -0.2 v 8.5 h 0.2 v 0 h -0.2 v 0 h 0.2 v 0.2 h 8.3 v 8.3 h 0.2 v 0.2 h 22.7 v 0 h 10 c 11.7,0 21.1,-9.5 21.1,-21.1 v -8.3 c 0.2,-11.8 -9.3,-21.2 -21,-21.2 z m -18.4,3.8 v 6 h -6 v -6 z m -22.8,29.6 z" />
        </g>
        <rect
           id="rect53"
           height="11.4"
           width="11.4"
           y="553.5"
           x="886.79999" />
        <rect
           id="rect55"
           height="8.8000002"
           width="8.8000002"
           y="540.79999"
           x="879.70001" />
        <rect
           id="rect57"
           height="6.5999999"
           width="6.5999999"
           y="549.40002"
           x="867.40002" />
      </g>
      <g
         id="g75"
         transform="matrix(1.0983111,0,0,1.0983111,-929.56373,-485.4401)">
        <g
           id="g71">
          <g
             id="g67">
            <line
               id="line61"
               y2="551.59998"
               x2="981.90002"
               y1="551.59998"
               x1="989"
               class="st0" />
            <g
               id="g65">
              <path
                 id="path63"
                 d="m 1012.5,572.7 v -5.4 c 0,-1 -0.1,-2 -0.3,-2.9 -1.4,-7.2 -7.7,-12.7 -15.3,-12.7 h -15.1 c -8.6,0 -15.6,7 -15.6,15.6 v 6.2 c 0,8.6 7,15.6 15.6,15.6 h 15.1 c 7.6,0 13.9,-5.4 15.3,-12.6 H 1002 c -0.4,0.6 -1.1,1 -1.8,1 h -21.5 c -1.2,0 -2.1,-0.9 -2.1,-2.1 v -2.7 z m -35.9,-7.4 c 0,-1.2 0.9,-2.1 2.1,-2.1 h 21.5 c 1.2,0 2.1,1 2.1,2.1 v 4.1 h -25.7 z"
                 class="st1" />
            </g>
          </g>
          <line
             id="line69"
             y2="572.70001"
             x2="1012.5"
             y1="572.70001"
             x1="1012.7"
             class="st0" />
        </g>
        <line
           id="line73"
           y2="576.5"
           x2="1002"
           y1="576.5"
           x1="1012.2"
           class="st0" />
      </g>
    </g>
  </g>
</svg>
